<svg width="66" height="113" viewBox="0 0 66 113" fill="none" xmlns="http://www.w3.org/2000/svg">
<mask id="path-1-outside-1_47_7" maskUnits="userSpaceOnUse" x="5" y="26" width="43" height="74" fill="black">
<rect fill="white" x="5" y="26" width="43" height="74"/>
<path d="M46.3867 81.7891C46.3867 84.1654 45.931 86.3952 45.0195 88.4785C44.1406 90.5618 42.9199 92.3848 41.3574 93.9473C39.7949 95.5098 37.972 96.7467 35.8887 97.6582C33.8053 98.5371 31.5755 98.9766 29.1992 98.9766H24.2188C21.8424 98.9766 19.5964 98.5371 17.4805 97.6582C15.3971 96.7467 13.5742 95.5098 12.0117 93.9473C10.4492 92.3848 9.21224 90.5618 8.30078 88.4785C7.42188 86.3952 6.98242 84.1654 6.98242 81.7891V44.1914C6.98242 41.8151 7.42188 39.5853 8.30078 37.502C9.21224 35.4186 10.4492 33.5957 12.0117 32.0332C13.5742 30.4707 15.3971 29.25 17.4805 28.3711C19.5964 27.4596 21.8424 27.0039 24.2188 27.0039H29.1992C31.5755 27.0039 33.8053 27.4596 35.8887 28.3711C37.972 29.25 39.7949 30.4707 41.3574 32.0332C42.9199 33.5957 44.1406 35.4186 45.0195 37.502C45.931 39.5853 46.3867 41.8151 46.3867 44.1914V47.0234L40.0879 48V44.1914C40.0879 42.6289 39.7949 41.1803 39.209 39.8457C38.623 38.4785 37.8255 37.2904 36.8164 36.2812C35.8073 35.2721 34.6191 34.4746 33.252 33.8887C31.9173 33.3027 30.4688 33.0098 28.9062 33.0098H24.5117C22.9492 33.0098 21.4844 33.3027 20.1172 33.8887C18.7826 34.4746 17.5944 35.2721 16.5527 36.2812C15.5436 37.2904 14.7461 38.4785 14.1602 39.8457C13.5742 41.1803 13.2812 42.6289 13.2812 44.1914V81.7891C13.2812 83.3516 13.5742 84.8164 14.1602 86.1836C14.7461 87.5182 15.5436 88.7064 16.5527 89.748C17.5944 90.7572 18.7826 91.5547 20.1172 92.1406C21.4844 92.7266 22.9492 93.0195 24.5117 93.0195H28.9062C30.4688 93.0195 31.9173 92.7266 33.252 92.1406C34.6191 91.5547 35.8073 90.7572 36.8164 89.748C37.8255 88.7064 38.623 87.5182 39.209 86.1836C39.7949 84.8164 40.0879 83.3516 40.0879 81.7891V77.9805L46.3867 79.0059V81.7891Z"/>
</mask>
<path d="M46.3867 81.7891C46.3867 84.1654 45.931 86.3952 45.0195 88.4785C44.1406 90.5618 42.9199 92.3848 41.3574 93.9473C39.7949 95.5098 37.972 96.7467 35.8887 97.6582C33.8053 98.5371 31.5755 98.9766 29.1992 98.9766H24.2188C21.8424 98.9766 19.5964 98.5371 17.4805 97.6582C15.3971 96.7467 13.5742 95.5098 12.0117 93.9473C10.4492 92.3848 9.21224 90.5618 8.30078 88.4785C7.42188 86.3952 6.98242 84.1654 6.98242 81.7891V44.1914C6.98242 41.8151 7.42188 39.5853 8.30078 37.502C9.21224 35.4186 10.4492 33.5957 12.0117 32.0332C13.5742 30.4707 15.3971 29.25 17.4805 28.3711C19.5964 27.4596 21.8424 27.0039 24.2188 27.0039H29.1992C31.5755 27.0039 33.8053 27.4596 35.8887 28.3711C37.972 29.25 39.7949 30.4707 41.3574 32.0332C42.9199 33.5957 44.1406 35.4186 45.0195 37.502C45.931 39.5853 46.3867 41.8151 46.3867 44.1914V47.0234L40.0879 48V44.1914C40.0879 42.6289 39.7949 41.1803 39.209 39.8457C38.623 38.4785 37.8255 37.2904 36.8164 36.2812C35.8073 35.2721 34.6191 34.4746 33.252 33.8887C31.9173 33.3027 30.4688 33.0098 28.9062 33.0098H24.5117C22.9492 33.0098 21.4844 33.3027 20.1172 33.8887C18.7826 34.4746 17.5944 35.2721 16.5527 36.2812C15.5436 37.2904 14.7461 38.4785 14.1602 39.8457C13.5742 41.1803 13.2812 42.6289 13.2812 44.1914V81.7891C13.2812 83.3516 13.5742 84.8164 14.1602 86.1836C14.7461 87.5182 15.5436 88.7064 16.5527 89.748C17.5944 90.7572 18.7826 91.5547 20.1172 92.1406C21.4844 92.7266 22.9492 93.0195 24.5117 93.0195H28.9062C30.4688 93.0195 31.9173 92.7266 33.252 92.1406C34.6191 91.5547 35.8073 90.7572 36.8164 89.748C37.8255 88.7064 38.623 87.5182 39.209 86.1836C39.7949 84.8164 40.0879 83.3516 40.0879 81.7891V77.9805L46.3867 79.0059V81.7891Z" fill="#808080"/>
<path d="M45.0195 88.4785L44.1033 88.0777L44.0982 88.0898L45.0195 88.4785ZM35.8887 97.6582L36.2774 98.5796L36.2895 98.5744L35.8887 97.6582ZM17.4805 97.6582L17.0796 98.5744L17.0882 98.5781L17.0969 98.5817L17.4805 97.6582ZM8.30078 88.4785L7.37934 88.8672L7.38462 88.8793L8.30078 88.4785ZM8.30078 37.502L7.38454 37.1011L7.37942 37.1133L8.30078 37.502ZM17.4805 28.3711L17.8692 29.2925L17.8761 29.2895L17.4805 28.3711ZM35.8887 28.3711L35.4878 29.2873L35.5 29.2925L35.8887 28.3711ZM45.0195 37.502L44.0981 37.8907L44.1034 37.9028L45.0195 37.502ZM46.3867 47.0234L46.5399 48.0116L47.3867 47.8803V47.0234H46.3867ZM40.0879 48H39.0879V49.167L40.2411 48.9882L40.0879 48ZM39.209 39.8457L38.2898 40.2396L38.2933 40.2477L39.209 39.8457ZM33.252 33.8887L32.8499 34.8044L32.858 34.8078L33.252 33.8887ZM20.1172 33.8887L19.7233 32.9695L19.7152 32.973L20.1172 33.8887ZM16.5527 36.2812L15.8569 35.563L15.8512 35.5685L15.8456 35.5741L16.5527 36.2812ZM14.1602 39.8457L15.0758 40.2477L15.0793 40.2396L14.1602 39.8457ZM14.1602 86.1836L13.241 86.5775L13.2445 86.5856L14.1602 86.1836ZM16.5527 89.748L15.8345 90.4438L15.8455 90.4552L15.8569 90.4663L16.5527 89.748ZM20.1172 92.1406L19.7152 93.0563L19.7233 93.0598L20.1172 92.1406ZM33.252 92.1406L32.858 91.2214L32.85 91.225L33.252 92.1406ZM36.8164 89.748L37.5235 90.4552L37.5291 90.4495L37.5346 90.4438L36.8164 89.748ZM39.209 86.1836L40.1247 86.5856L40.1281 86.5775L39.209 86.1836ZM40.0879 77.9805L40.2486 76.9935L39.0879 76.8045V77.9805H40.0879ZM46.3867 79.0059H47.3867V78.1555L46.5474 78.0189L46.3867 79.0059ZM45.3867 81.7891C45.3867 84.0337 44.9571 86.1264 44.1034 88.0777L45.9357 88.8793C46.9049 86.6639 47.3867 84.297 47.3867 81.7891H45.3867ZM44.0982 88.0898C43.2683 90.057 42.1194 91.7711 40.6503 93.2402L42.0645 94.6544C43.7205 92.9984 45.013 91.0667 45.9409 88.8672L44.0982 88.0898ZM40.6503 93.2402C39.1786 94.7119 37.4603 95.8791 35.4879 96.742L36.2895 98.5744C38.4837 97.6144 40.4113 96.3076 42.0645 94.6544L40.6503 93.2402ZM35.5 96.7368C33.5459 97.5612 31.4489 97.9766 29.1992 97.9766V99.9766C31.7021 99.9766 34.0648 99.513 36.2774 98.5796L35.5 96.7368ZM29.1992 97.9766H24.2188V99.9766H29.1992V97.9766ZM24.2188 97.9766C21.9691 97.9766 19.8538 97.5612 17.8641 96.7347L17.0969 98.5817C19.3389 99.513 21.7158 99.9766 24.2188 99.9766V97.9766ZM17.8813 96.742C15.9088 95.8791 14.1906 94.7119 12.7188 93.2402L11.3046 94.6544C12.9579 96.3076 14.8855 97.6144 17.0796 98.5744L17.8813 96.742ZM12.7188 93.2402C11.2471 91.7684 10.0799 90.0502 9.21694 88.0777L7.38462 88.8793C8.34458 91.0735 9.65137 93.0011 11.3046 94.6544L12.7188 93.2402ZM9.22215 88.0898C8.39776 86.1357 7.98242 84.0388 7.98242 81.7891H5.98242C5.98242 84.292 6.44599 86.6546 7.37942 88.8672L9.22215 88.0898ZM7.98242 81.7891V44.1914H5.98242V81.7891H7.98242ZM7.98242 44.1914C7.98242 41.9417 8.39776 39.8448 9.22215 37.8907L7.37942 37.1133C6.44599 39.3258 5.98242 41.6885 5.98242 44.1914H7.98242ZM9.21694 37.9028C10.0799 35.9303 11.2471 34.2121 12.7188 32.7403L11.3046 31.3261C9.65137 32.9793 8.34458 34.907 7.38462 37.1011L9.21694 37.9028ZM12.7188 32.7403C14.1879 31.2713 15.902 30.1224 17.8692 29.2925L17.0918 27.4497C14.8923 28.3776 12.9606 29.6701 11.3046 31.3261L12.7188 32.7403ZM17.8761 29.2895C19.8631 28.4336 21.9741 28.0039 24.2188 28.0039V26.0039C21.7108 26.0039 19.3296 26.4857 17.0848 27.4527L17.8761 29.2895ZM24.2188 28.0039H29.1992V26.0039H24.2188V28.0039ZM29.1992 28.0039C31.4439 28.0039 33.5366 28.4336 35.4879 29.2873L36.2895 27.4549C34.0741 26.4857 31.7071 26.0039 29.1992 26.0039V28.0039ZM35.5 29.2925C37.4672 30.1224 39.1813 31.2713 40.6503 32.7403L42.0645 31.3261C40.4086 29.6701 38.4768 28.3776 36.2774 27.4497L35.5 29.2925ZM40.6503 32.7403C42.1194 34.2094 43.2683 35.9235 44.0982 37.8907L45.9409 37.1133C45.013 34.9138 43.7205 32.9821 42.0645 31.3261L40.6503 32.7403ZM44.1034 37.9028C44.9571 39.854 45.3867 41.9467 45.3867 44.1914H47.3867C47.3867 41.6835 46.9049 39.3165 45.9357 37.1011L44.1034 37.9028ZM45.3867 44.1914V47.0234H47.3867V44.1914H45.3867ZM46.2335 46.0352L39.9347 47.0118L40.2411 48.9882L46.5399 48.0116L46.2335 46.0352ZM41.0879 48V44.1914H39.0879V48H41.0879ZM41.0879 44.1914C41.0879 42.5006 40.7701 40.914 40.1246 39.4437L38.2933 40.2477C38.8197 41.4467 39.0879 42.7572 39.0879 44.1914H41.0879ZM40.1281 39.4518C39.4942 37.9727 38.6264 36.677 37.5235 35.5741L36.1093 36.9884C37.0247 37.9037 37.7519 38.9843 38.2898 40.2396L40.1281 39.4518ZM37.5235 35.5741C36.4207 34.4713 35.125 33.6034 33.6459 32.9695L32.858 34.8078C34.1133 35.3458 35.1939 36.073 36.1093 36.9884L37.5235 35.5741ZM33.6539 32.973C32.1837 32.3275 30.597 32.0098 28.9062 32.0098V34.0098C30.3405 34.0098 31.651 34.2779 32.85 34.8043L33.6539 32.973ZM28.9062 32.0098H24.5117V34.0098H28.9062V32.0098ZM24.5117 32.0098C22.8208 32.0098 21.2212 32.3276 19.7233 32.9695L20.5111 34.8078C21.7476 34.2779 23.0777 34.0098 24.5117 34.0098V32.0098ZM19.7152 32.973C18.2722 33.6065 16.9845 34.4707 15.8569 35.563L17.2485 36.9995C18.2043 36.0735 19.2929 35.3427 20.5192 34.8043L19.7152 32.973ZM15.8456 35.5741C14.7428 36.677 13.8749 37.9727 13.241 39.4518L15.0793 40.2396C15.6173 38.9843 16.3445 37.9037 17.2598 36.9884L15.8456 35.5741ZM13.2445 39.4437C12.599 40.914 12.2812 42.5006 12.2812 44.1914H14.2812C14.2812 42.7572 14.5494 41.4467 15.0758 40.2477L13.2445 39.4437ZM12.2812 44.1914V81.7891H14.2812V44.1914H12.2812ZM12.2812 81.7891C12.2812 83.48 12.5991 85.0796 13.241 86.5775L15.0793 85.7897C14.5494 84.5532 14.2812 83.2231 14.2812 81.7891H12.2812ZM13.2445 86.5856C13.878 88.0286 14.7422 89.3163 15.8345 90.4438L17.271 89.0523C16.345 88.0964 15.6142 87.0079 15.0758 85.7816L13.2445 86.5856ZM15.8569 90.4663C16.9845 91.5586 18.2722 92.4228 19.7152 93.0563L20.5192 91.225C19.2929 90.6866 18.2043 89.9557 17.2485 89.0298L15.8569 90.4663ZM19.7233 93.0598C21.2212 93.7017 22.8208 94.0195 24.5117 94.0195V92.0195C23.0777 92.0195 21.7476 91.7514 20.5111 91.2215L19.7233 93.0598ZM24.5117 94.0195H28.9062V92.0195H24.5117V94.0195ZM28.9062 94.0195C30.597 94.0195 32.1837 93.7018 33.6539 93.0563L32.85 91.225C31.651 91.7514 30.3405 92.0195 28.9062 92.0195V94.0195ZM33.6459 93.0598C35.125 92.4259 36.4207 91.558 37.5235 90.4552L36.1093 89.0409C35.1939 89.9563 34.1133 90.6835 32.858 91.2215L33.6459 93.0598ZM37.5346 90.4438C38.6269 89.3163 39.4911 88.0286 40.1246 86.5856L38.2933 85.7816C37.755 87.0079 37.0241 88.0964 36.0982 89.0523L37.5346 90.4438ZM40.1281 86.5775C40.7701 85.0796 41.0879 83.48 41.0879 81.7891H39.0879C39.0879 83.2231 38.8198 84.5532 38.2898 85.7897L40.1281 86.5775ZM41.0879 81.7891V77.9805H39.0879V81.7891H41.0879ZM39.9272 78.9675L46.226 79.9929L46.5474 78.0189L40.2486 76.9935L39.9272 78.9675ZM45.3867 79.0059V81.7891H47.3867V79.0059H45.3867Z" fill="#808080" mask="url(#path-1-outside-1_47_7)"/>
<line y1="-0.75" x2="98.3689" y2="-0.75" transform="matrix(0.00144243 0.999999 -1 0.000863856 21 14.0089)" stroke="#808080" stroke-width="1.5"/>
<line y1="-0.75" x2="98.3689" y2="-0.75" transform="matrix(0.00144243 0.999999 -1 0.000863856 29.8582 14)" stroke="#808080" stroke-width="1.5"/>
</svg>
